<?xml version="1.0" encoding="UTF-8"?>
<svg id="Layer_2" data-name="Layer 2" xmlns="http://www.w3.org/2000/svg" xmlns:xlink="http://www.w3.org/1999/xlink" viewBox="0 0 145.81 126.28">
  <defs>
    <style>
      .cls-1 {
        fill: url(#New_Gradient_Swatch_2-33);
      }

      .cls-2 {
        fill: url(#New_Gradient_Swatch_2-2);
      }

      .cls-3 {
        fill: url(#New_Gradient_Swatch_2-28);
      }

      .cls-4 {
        fill: url(#New_Gradient_Swatch_2-14);
      }

      .cls-5 {
        fill: url(#New_Gradient_Swatch_2-22);
      }

      .cls-6 {
        fill: url(#New_Gradient_Swatch_2-8);
      }

      .cls-7 {
        fill: url(#New_Gradient_Swatch_2-4);
      }

      .cls-8 {
        fill: url(#New_Gradient_Swatch_2-34);
      }

      .cls-9 {
        fill: url(#New_Gradient_Swatch_2-36);
      }

      .cls-10 {
        fill: url(#New_Gradient_Swatch_2-17);
      }

      .cls-11 {
        fill: url(#New_Gradient_Swatch_2-13);
      }

      .cls-12 {
        fill: url(#New_Gradient_Swatch_2-11);
      }

      .cls-13 {
        fill: url(#New_Gradient_Swatch_2-18);
      }

      .cls-14 {
        fill: url(#New_Gradient_Swatch_2-20);
      }

      .cls-15 {
        fill: url(#New_Gradient_Swatch_2-31);
      }

      .cls-16 {
        fill: url(#New_Gradient_Swatch_2-25);
      }

      .cls-17 {
        fill: url(#New_Gradient_Swatch_2-24);
      }

      .cls-18 {
        fill: url(#New_Gradient_Swatch_2-15);
      }

      .cls-19 {
        fill: url(#New_Gradient_Swatch_2);
      }

      .cls-20 {
        fill: url(#New_Gradient_Swatch_2-29);
      }

      .cls-21 {
        fill: url(#New_Gradient_Swatch_2-12);
      }

      .cls-22 {
        fill: url(#New_Gradient_Swatch_2-19);
      }

      .cls-23 {
        fill: url(#New_Gradient_Swatch_2-23);
      }

      .cls-24 {
        fill: url(#New_Gradient_Swatch_2-7);
      }

      .cls-25 {
        fill: url(#New_Gradient_Swatch_2-21);
      }

      .cls-26 {
        fill: url(#New_Gradient_Swatch_2-3);
      }

      .cls-27 {
        fill: url(#New_Gradient_Swatch_2-5);
      }

      .cls-28 {
        fill: url(#New_Gradient_Swatch_2-32);
      }

      .cls-29 {
        fill: url(#New_Gradient_Swatch_2-27);
      }

      .cls-30 {
        fill: url(#New_Gradient_Swatch_2-26);
      }

      .cls-31 {
        fill: url(#New_Gradient_Swatch_2-16);
      }

      .cls-32 {
        fill: url(#New_Gradient_Swatch_2-30);
      }

      .cls-33 {
        fill: url(#New_Gradient_Swatch_2-10);
      }

      .cls-34 {
        fill: url(#New_Gradient_Swatch_2-35);
      }

      .cls-35 {
        fill: url(#New_Gradient_Swatch_2-6);
      }

      .cls-36 {
        fill: url(#New_Gradient_Swatch_2-9);
      }
    </style>
    <linearGradient id="New_Gradient_Swatch_2" data-name="New Gradient Swatch 2" x1="61.29" y1="57.27" x2="83.44" y2="57.27" gradientUnits="userSpaceOnUse">
      <stop offset="0" stop-color="#3ddeed"/>
      <stop offset="1" stop-color="#cb00dd"/>
    </linearGradient>
    <linearGradient id="New_Gradient_Swatch_2-2" data-name="New Gradient Swatch 2" x1="60.4" y1="57.06" x2="83.81" y2="57.06" xlink:href="#New_Gradient_Swatch_2"/>
    <linearGradient id="New_Gradient_Swatch_2-3" data-name="New Gradient Swatch 2" x1="59.47" y1="56.86" x2="84.18" y2="56.86" xlink:href="#New_Gradient_Swatch_2"/>
    <linearGradient id="New_Gradient_Swatch_2-4" data-name="New Gradient Swatch 2" x1="58.48" y1="56.66" x2="84.55" y2="56.66" xlink:href="#New_Gradient_Swatch_2"/>
    <linearGradient id="New_Gradient_Swatch_2-5" data-name="New Gradient Swatch 2" x1="57.45" y1="56.46" x2="84.91" y2="56.46" xlink:href="#New_Gradient_Swatch_2"/>
    <linearGradient id="New_Gradient_Swatch_2-6" data-name="New Gradient Swatch 2" x1="56.37" y1="56.26" x2="85.26" y2="56.26" xlink:href="#New_Gradient_Swatch_2"/>
    <linearGradient id="New_Gradient_Swatch_2-7" data-name="New Gradient Swatch 2" x1="55.23" y1="56.07" x2="85.61" y2="56.07" xlink:href="#New_Gradient_Swatch_2"/>
    <linearGradient id="New_Gradient_Swatch_2-8" data-name="New Gradient Swatch 2" x1="54.04" y1="55.88" x2="85.95" y2="55.88" xlink:href="#New_Gradient_Swatch_2"/>
    <linearGradient id="New_Gradient_Swatch_2-9" data-name="New Gradient Swatch 2" x1="52.8" y1="55.7" x2="86.27" y2="55.7" xlink:href="#New_Gradient_Swatch_2"/>
    <linearGradient id="New_Gradient_Swatch_2-10" data-name="New Gradient Swatch 2" x1="51.5" y1="55.53" x2="86.57" y2="55.53" xlink:href="#New_Gradient_Swatch_2"/>
    <linearGradient id="New_Gradient_Swatch_2-11" data-name="New Gradient Swatch 2" x1="50.15" y1="55.37" x2="86.86" y2="55.37" xlink:href="#New_Gradient_Swatch_2"/>
    <linearGradient id="New_Gradient_Swatch_2-12" data-name="New Gradient Swatch 2" x1="48.73" y1="55.22" x2="87.13" y2="55.22" xlink:href="#New_Gradient_Swatch_2"/>
    <linearGradient id="New_Gradient_Swatch_2-13" data-name="New Gradient Swatch 2" x1="47.26" y1="55.08" x2="87.37" y2="55.08" xlink:href="#New_Gradient_Swatch_2"/>
    <linearGradient id="New_Gradient_Swatch_2-14" data-name="New Gradient Swatch 2" x1="45.73" y1="54.96" x2="87.58" y2="54.96" xlink:href="#New_Gradient_Swatch_2"/>
    <linearGradient id="New_Gradient_Swatch_2-15" data-name="New Gradient Swatch 2" x1="44.14" y1="54.86" x2="87.75" y2="54.86" xlink:href="#New_Gradient_Swatch_2"/>
    <linearGradient id="New_Gradient_Swatch_2-16" data-name="New Gradient Swatch 2" x1="42.5" y1="54.78" x2="87.89" y2="54.78" xlink:href="#New_Gradient_Swatch_2"/>
    <linearGradient id="New_Gradient_Swatch_2-17" data-name="New Gradient Swatch 2" x1="40.79" y1="54.72" x2="87.99" y2="54.72" xlink:href="#New_Gradient_Swatch_2"/>
    <linearGradient id="New_Gradient_Swatch_2-18" data-name="New Gradient Swatch 2" x1="39.03" y1="54.69" x2="88.04" y2="54.69" xlink:href="#New_Gradient_Swatch_2"/>
    <linearGradient id="New_Gradient_Swatch_2-19" data-name="New Gradient Swatch 2" x1="37.21" y1="54.69" x2="88.04" y2="54.69" xlink:href="#New_Gradient_Swatch_2"/>
    <linearGradient id="New_Gradient_Swatch_2-20" data-name="New Gradient Swatch 2" x1="35.33" y1="54.72" x2="87.98" y2="54.72" xlink:href="#New_Gradient_Swatch_2"/>
    <linearGradient id="New_Gradient_Swatch_2-21" data-name="New Gradient Swatch 2" x1="33.4" y1="54.78" x2="87.86" y2="54.78" xlink:href="#New_Gradient_Swatch_2"/>
    <linearGradient id="New_Gradient_Swatch_2-22" data-name="New Gradient Swatch 2" x1="31.41" y1="54.89" x2="87.67" y2="54.89" xlink:href="#New_Gradient_Swatch_2"/>
    <linearGradient id="New_Gradient_Swatch_2-23" data-name="New Gradient Swatch 2" x1="29.37" y1="55.03" x2="87.61" y2="55.03" xlink:href="#New_Gradient_Swatch_2"/>
    <linearGradient id="New_Gradient_Swatch_2-24" data-name="New Gradient Swatch 2" x1="27.29" y1="55.23" x2="90.38" y2="55.23" xlink:href="#New_Gradient_Swatch_2"/>
    <linearGradient id="New_Gradient_Swatch_2-25" data-name="New Gradient Swatch 2" x1="25.15" y1="55.47" x2="93.39" y2="55.47" xlink:href="#New_Gradient_Swatch_2"/>
    <linearGradient id="New_Gradient_Swatch_2-26" data-name="New Gradient Swatch 2" x1="22.97" y1="55.78" x2="96.64" y2="55.78" xlink:href="#New_Gradient_Swatch_2"/>
    <linearGradient id="New_Gradient_Swatch_2-27" data-name="New Gradient Swatch 2" x1="20.76" y1="56.14" x2="100.15" y2="56.14" xlink:href="#New_Gradient_Swatch_2"/>
    <linearGradient id="New_Gradient_Swatch_2-28" data-name="New Gradient Swatch 2" x1="18.51" y1="56.57" x2="103.93" y2="56.57" xlink:href="#New_Gradient_Swatch_2"/>
    <linearGradient id="New_Gradient_Swatch_2-29" data-name="New Gradient Swatch 2" x1="16.22" y1="57.07" x2="108" y2="57.07" xlink:href="#New_Gradient_Swatch_2"/>
    <linearGradient id="New_Gradient_Swatch_2-30" data-name="New Gradient Swatch 2" x1="13.92" y1="57.65" x2="112.37" y2="57.65" xlink:href="#New_Gradient_Swatch_2"/>
    <linearGradient id="New_Gradient_Swatch_2-31" data-name="New Gradient Swatch 2" x1="11.6" y1="58.32" x2="117.06" y2="58.32" xlink:href="#New_Gradient_Swatch_2"/>
    <linearGradient id="New_Gradient_Swatch_2-32" data-name="New Gradient Swatch 2" x1="9.26" y1="59.07" x2="122.08" y2="59.07" xlink:href="#New_Gradient_Swatch_2"/>
    <linearGradient id="New_Gradient_Swatch_2-33" data-name="New Gradient Swatch 2" x1="6.93" y1="59.92" x2="127.45" y2="59.92" xlink:href="#New_Gradient_Swatch_2"/>
    <linearGradient id="New_Gradient_Swatch_2-34" data-name="New Gradient Swatch 2" x1="4.6" y1="60.88" x2="133.18" y2="60.88" xlink:href="#New_Gradient_Swatch_2"/>
    <linearGradient id="New_Gradient_Swatch_2-35" data-name="New Gradient Swatch 2" x1="2.29" y1="61.95" x2="139.3" y2="61.95" xlink:href="#New_Gradient_Swatch_2"/>
    <linearGradient id="New_Gradient_Swatch_2-36" data-name="New Gradient Swatch 2" x1="0" y1="63.14" x2="145.81" y2="63.14" xlink:href="#New_Gradient_Swatch_2"/>
  </defs>
  <g id="object">
    <g>
      <path class="cls-19" d="M83.44,70.5l-22.15-2.89,2.58-23.58,19.57,26.47Zm-21.75-3.2l20.96,2.73-18.51-25.05-2.44,22.31Z"/>
      <path class="cls-2" d="M83.81,71.18l-23.41-3.81,3.62-24.42,19.79,28.23Zm-23-4.11l22.21,3.61-18.78-26.79-3.43,23.17Z"/>
      <path class="cls-26" d="M84.18,71.89l-24.71-4.81,4.74-25.26,19.97,30.06Zm-24.29-5.09l23.51,4.57-19-28.61-4.51,24.03Z"/>
      <path class="cls-7" d="M84.55,72.65l-26.06-5.9,5.97-26.09,20.09,31.98Zm-25.63-6.17l24.86,5.62-19.16-30.51-5.7,24.89Z"/>
      <path class="cls-27" d="M84.91,73.45l-27.46-7.08,7.31-26.91,20.14,33.99Zm-27.01-7.33l26.26,6.77-19.26-32.5-6.99,25.73Z"/>
      <path class="cls-35" d="M85.26,74.29l-28.9-8.36,8.76-27.72,20.13,36.07Zm-28.44-8.6l27.7,8.01-19.3-34.58-8.4,26.57Z"/>
      <path class="cls-24" d="M85.61,75.19l-30.38-9.74,10.33-28.5,20.04,38.24Zm-29.91-9.97l29.18,9.35-19.26-36.74-9.93,27.38Z"/>
      <path class="cls-6" d="M85.95,76.13l-31.9-11.23,12.03-29.27,19.87,40.5Zm-31.42-11.44l30.71,10.81-19.13-38.99-11.58,28.18Z"/>
      <path class="cls-36" d="M86.27,77.12l-33.47-12.84,13.87-30,19.6,42.84Zm-32.98-13.04l32.28,12.38-18.91-41.32-13.38,28.94Z"/>
      <path class="cls-33" d="M86.57,78.16l-35.07-14.57,15.84-30.7,19.23,45.27Zm-34.57-14.75l33.9,14.08-18.59-43.75-15.31,29.67Z"/>
      <path class="cls-12" d="M86.86,79.26l-36.72-16.43,17.97-31.36,18.75,47.78Zm-36.21-16.59l35.55,15.9-18.15-46.26-17.39,30.36Z"/>
      <path class="cls-21" d="M87.13,80.41l-38.39-18.42,20.25-31.96,.12,.35,18.02,50.04Zm-37.87-18.57l37.24,17.86-17.6-48.86-19.64,31Z"/>
      <path class="cls-11" d="M87.37,81.62l-40.1-20.56,22.7-32.51,17.41,53.07Zm-39.57-20.69l38.96,19.97-16.91-51.55-22.05,31.58Z"/>
      <path class="cls-4" d="M87.58,82.88l-41.84-22.84,.13-.17,25.19-32.83,16.53,55.84Zm-41.3-22.95l40.71,22.22-16.08-54.32-24.63,32.1Z"/>
      <path class="cls-18" d="M87.75,84.2l-43.61-25.28,28.12-33.41,15.49,58.69Zm-43.06-25.38l42.49,24.63-15.09-57.18-27.4,32.55Z"/>
      <path class="cls-31" d="M87.89,85.59l-45.4-27.88,31.12-33.73,.08,.33,14.2,61.28Zm-44.83-27.96l44.29,27.2-13.93-60.11-30.36,32.91Z"/>
      <path class="cls-10" d="M87.99,87.03l-47.2-30.66L75.11,22.41l12.88,64.62Zm-46.63-30.72l46.11,29.95-12.58-63.13L41.37,56.32Z"/>
      <path class="cls-13" d="M88.04,88.54L39.03,54.93,76.75,20.84l11.29,67.7ZM39.61,54.89l47.94,32.87-11.04-66.22L39.61,54.89Z"/>
      <path class="cls-22" d="M88.04,90.11L37.21,53.36,78.56,19.26l9.48,70.85ZM37.8,53.34l49.77,35.99-9.29-69.37L37.8,53.34Z"/>
      <path class="cls-14" d="M87.98,91.75L35.33,51.66,80.53,17.69l7.45,74.06ZM35.93,51.66l51.61,39.29-7.3-72.6L35.93,51.66Z"/>
      <path class="cls-25" d="M87.86,93.45L33.4,49.83,82.69,16.12l5.17,77.33ZM34,49.85l53.44,42.81-5.07-75.88L34,49.85Z"/>
      <path class="cls-5" d="M87.67,95.21L31.41,47.84,85.05,14.56v.31s2.62,80.34,2.62,80.34ZM32.02,47.89l55.26,46.53-2.57-79.22L32.02,47.89Z"/>
      <path class="cls-23" d="M87.4,97.04L29.37,45.71,87.61,13.02l-.21,84.02ZM29.99,45.77l57.05,50.47,.21-82.6L29.99,45.77Z"/>
      <path class="cls-17" d="M87.04,98.94L27.29,43.41,90.38,11.52v.31s-3.34,87.11-3.34,87.11ZM27.91,43.5l58.8,54.64,3.29-86.02L27.91,43.5Z"/>
      <path class="cls-16" d="M86.6,100.9L25.15,40.95,93.39,10.05l-6.79,90.85ZM25.78,41.06l60.51,59.04,6.69-89.47L25.78,41.06Z"/>
      <path class="cls-30" d="M86.05,102.92L22.97,38.3,96.64,8.63l-.03,.3-10.56,93.99ZM23.61,38.44l62.17,63.69L96.22,9.19,23.61,38.44Z"/>
      <path class="cls-29" d="M85.4,105.01L20.76,35.47,100.15,7.27l-14.76,97.74ZM21.39,35.63l63.76,68.59L99.71,7.81,21.39,35.63Z"/>
      <path class="cls-3" d="M84.62,107.16L18.51,32.44,103.93,5.98l-.06,.29-19.25,100.88ZM19.15,32.62L84.41,106.37,103.47,6.5,19.15,32.62Z"/>
      <path class="cls-20" d="M83.72,109.37L16.22,29.21,108,4.78l-.07,.29-24.21,104.3ZM16.87,29.41L83.54,108.59,107.52,5.28,16.87,29.41Z"/>
      <path class="cls-32" d="M82.69,111.64l-.22-.28L13.92,25.76,112.37,3.67l-29.69,107.97ZM14.56,25.99L82.53,110.86,111.87,4.15,14.56,25.99Z"/>
      <path class="cls-15" d="M81.5,113.96L11.6,22.09,117.06,2.67l-.09,.29-35.47,111ZM12.24,22.34L81.37,113.19,116.53,3.14,12.24,22.34Z"/>
      <path class="cls-28" d="M80.15,116.33L9.26,18.18,122.08,1.81l-41.93,114.53ZM9.9,18.45L80.05,115.57,121.53,2.25,9.9,18.45Z"/>
      <path class="cls-1" d="M78.63,118.76L6.93,14.03l.3-.03L127.45,1.09l-.12,.28-48.7,117.39ZM7.56,14.32L78.55,118.01,126.88,1.51,7.56,14.32Z"/>
      <path class="cls-8" d="M76.93,121.23L4.6,9.62,133.18,.53l-56.25,120.69ZM5.23,9.94L76.87,120.48,132.59,.94,5.23,9.94Z"/>
      <path class="cls-34" d="M75.02,123.74L2.29,4.95,139.3,.16,75.02,123.74ZM2.92,5.29L75,123,138.69,.54,2.92,5.29Z"/>
      <path class="cls-9" d="M72.91,126.28L0,0H145.81S72.91,126.28,72.91,126.28ZM.62,.36L72.91,125.56,145.19,.36H.62Z"/>
    </g>
  </g>
</svg>